<svg width="110" height="324" viewBox="0 0 110 324" fill="none" xmlns="http://www.w3.org/2000/svg">
<path d="M109.988 268.194C109.988 297.02 89.256 316.616 54.608 316.616C19.96 316.616 0.364012 297.02 0.364011 268.194C0.364009 239.368 20.102 219.772 54.608 219.772C89.256 219.772 109.988 239.368 109.988 268.194ZM88.12 268.194C88.12 254.278 75.056 245.616 54.608 245.616C34.16 245.616 22.09 254.278 22.09 268.194C22.09 282.11 34.16 290.63 54.608 290.63C75.056 290.63 88.12 282.11 88.12 268.194ZM108 193.057L2.21 193.057L2.21 167.213L52.904 140.943L76.334 130.577L76.334 129.867C65.116 131.145 49.922 133.275 37.284 133.275L2.21 133.275L2.21 109.135L108 109.135L108 134.979L57.022 161.107L33.876 171.473L33.876 172.183C45.662 171.047 60.146 168.917 72.926 168.917L108 168.917L108 193.057ZM108 77.5157L2.21 77.5157L2.20999 10.4917L23.368 10.4917L23.368 52.0977L42.964 52.0977L42.964 16.7397L64.264 16.7397L64.264 52.0977L86.7 52.0977L86.7 8.92973L108 8.92973L108 77.5157Z" fill="#384D95"/>
</svg>
