<svg width="106" height="510" viewBox="0 0 106 510" fill="none" xmlns="http://www.w3.org/2000/svg">
<path d="M106 476.84L21.368 476.84L21.368 505.382L0.209991 505.382L0.209987 422.738L21.368 422.738L21.368 451.422L106 451.422L106 476.84ZM106 399.358L0.209986 399.358L0.209985 373.94L40.538 373.94L40.538 339.15L0.209983 339.15L0.209982 313.874L106 313.874L106 339.15L62.548 339.15L62.548 373.94L106 373.94L106 399.358ZM106 282.291L0.209981 282.291L0.209979 243.525C0.209978 220.947 8.01998 202.203 33.58 202.203C58.43 202.203 68.796 220.947 68.796 243.525L68.796 256.873L106 256.873L106 282.291ZM48.774 256.873L48.774 245.513C48.774 233.443 43.52 226.911 33.58 226.911C23.64 226.911 20.374 233.443 20.374 245.513L20.374 256.873L48.774 256.873ZM106 225.207L62.264 248.069L45.65 230.887L106 196.807L106 225.207ZM106 174.654L0.209976 174.654L0.209973 107.63L21.368 107.63L21.368 149.236L40.964 149.236L40.964 113.878L62.264 113.878L62.264 149.236L84.7 149.236L84.7 106.068L106 106.068L106 174.654ZM106 78.1107L0.209972 78.1107L0.209969 11.0867L21.368 11.0867L21.368 52.6927L40.964 52.6927L40.964 17.3347L62.264 17.3347L62.264 52.6927L84.7 52.6927L84.7 9.52466L106 9.52466L106 78.1107Z" fill="#384D95"/>
</svg>
