<svg width="110" height="350" viewBox="0 0 110 350" fill="none" xmlns="http://www.w3.org/2000/svg">
<path d="M2 33.16L86.632 33.16V4.618L107.79 4.618L107.79 87.262H86.632L86.632 58.578L2 58.578L2 33.16ZM2 119.73L107.79 100.56V126.404L59.51 133.078C48.434 134.498 37.358 135.918 25.998 137.338V137.906C37.358 139.894 48.576 142.024 59.51 144.154L107.79 154.946L107.79 176.388L59.51 187.322C48.718 189.452 37.358 191.298 25.998 193.428V194.138C37.358 195.416 48.576 196.836 59.51 198.114L107.79 205.072V229.07L2 210.752V178.802L48.008 169.288C56.102 167.584 64.622 166.164 72.574 165.17V164.602C64.622 163.182 56.102 161.904 48.008 160.342L2 151.112V119.73ZM0.0119999 293.074C0.0119999 264.248 20.744 244.652 55.392 244.652C90.04 244.652 109.636 264.248 109.636 293.074C109.636 321.9 89.898 341.496 55.392 341.496C20.744 341.496 0.0119999 321.9 0.0119999 293.074ZM21.88 293.074C21.88 306.99 34.944 315.652 55.392 315.652C75.84 315.652 87.91 306.99 87.91 293.074C87.91 279.158 75.84 270.638 55.392 270.638C34.944 270.638 21.88 279.158 21.88 293.074Z" fill="#F2911B"/>
</svg>
