<svg width="35" height="35" viewBox="0 0 35 35" fill="none" xmlns="http://www.w3.org/2000/svg">
<line x1="12" y1="5.25" x2="32" y2="5.25" stroke="white" stroke-width="1.5"/>
<line x1="12" y1="32.25" x2="32" y2="32.25" stroke="white" stroke-width="1.5"/>
<line x1="31.263" y1="5" x2="31.263" y2="32" stroke="white" stroke-width="1.5"/>
<line x1="12.75" y1="6" x2="12.75" y2="13" stroke="white" stroke-width="1.5"/>
<line x1="12.75" y1="25" x2="12.75" y2="32" stroke="white" stroke-width="1.5"/>
<path d="M0.469669 18.4697C0.176777 18.7626 0.176777 19.2374 0.469669 19.5303L5.24264 24.3033C5.53553 24.5962 6.01041 24.5962 6.3033 24.3033C6.59619 24.0104 6.59619 23.5355 6.3033 23.2426L2.06066 19L6.3033 14.7574C6.59619 14.4645 6.59619 13.9896 6.3033 13.6967C6.01041 13.4038 5.53553 13.4038 5.24264 13.6967L0.469669 18.4697ZM17 18.25L1 18.25V19.75L17 19.75V18.25Z" fill="white"/>
</svg>
